<svg width="357" height="405" xmlns="http://www.w3.org/2000/svg" xmlns:xlink="http://www.w3.org/1999/xlink" xml:space="preserve" overflow="hidden"><defs><clipPath id="clip0"><rect x="434" y="1039" width="357" height="405"/></clipPath></defs><g clip-path="url(#clip0)" transform="translate(-434 -1039)"><path d="M286.685 8.98379C288.636 8.51096 290.868 8.76326 292.562 9.33426 288.204 18.5043 270.018 34.0088 263.75 42.1264 267.655 56.0745 268.249 64.331 273.617 84.0412 288.907 86.9692 299.179 96.4944 310.472 95.2715 322.321 76.9881 333.667 75.1668 338.825 62.6368 343.946 94.7997 316.906 123.663 292.059 128.155 289.82 128.326 288.464 128.332 286.803 128.472 281.893 127.845 277.787 127.962 273.455 126.446 271.624 126.174 270.833 125.374 269.035 125.072 260.55 153.334 210.813 178.899 192.391 212.304 173.97 245.709 130.272 275.192 109.361 306.806 109.901 308.059 109.997 309.474 110.668 311.913 120.582 334.503 111.971 358.271 95.5752 371.478 86.731 378.857 71.7203 386.631 60.3152 387.016 58.6189 386.742 56.3018 387.063 54.4383 386.665 59.6014 379.033 78.0422 364.886 83.2497 353.874 75.833 341.431 79.1731 327.455 73.4024 311.976 58.2191 307.773 45.0682 303.109 36.9739 300.746 31.1477 309.124 13.6197 323.689 8.18244 333.471 2.75638 302.292 27.3741 263.304 54.8526 267.856 56.6388 267.717 58.1042 267.55 60.1967 267.528 64.6446 267.744 69.1561 268.69 73.5448 269.553 75.6546 269.697 76.4998 270.482 77.9649 270.928 88.9412 243.778 134.944 209.645 154.608 183.696 174.273 157.746 214.794 126.586 237.638 89.1936 236.98 87.922 236.916 85.9993 236.332 84.0863 233.365 66.6356 232.803 37.0021 251.424 24.5219 259.06 13.057 273.486 12.2373 286.685 8.98379M286.685 0C250.854 1.67476 223.477 40.9338 226.567 68.2245 227.461 73.1827 228.806 81.4616 228.754 86.5974 209.011 128.732 186.62 131.541 155.25 170.257 123.88 208.973 108.602 215.776 75.6206 260.888 71.2699 258.971 65.4096 258.347 60.1967 258.544 28.0398 254.619 0.187106 282.59 0 327.387-1.68901 336.494-0.507497 342.644 3.78979 351.178 16.2561 332.799 32.4169 324.155 39.3106 310.75 47.2037 311.387 53.5122 317.258 66.9379 319.285 71.4902 330.515 72.3307 343.35 74.4366 351.178 57.2034 371.425 42.5246 377.856 38.9158 391.607 45.5985 394.359 54.5915 395.756 60.3152 396 96.7148 395.287 124.081 359.615 120.432 327.775 121.995 321.176 119.539 315.387 118.245 309.402 136.704 282.875 177.691 247.856 190.218 227.486 202.746 207.115 241.835 189.195 271.379 135.111 275.851 137.566 281.069 138.319 286.803 137.456 329.294 139.103 354.458 103.691 346.999 68.6125 345.68 60.8941 347.74 53.5826 343.21 44.8215 336.215 54.9679 322.266 66.5605 308.084 85.2496 302.362 83.616 289.461 78.2889 280.062 76.7149 276.258 66.4396 278.314 58.8021 272.563 44.8215 289.637 24.3187 298.465 18.0697 308.084 4.393 301.043 1.21492 293.902 1.28964 286.685 0Z" stroke="#FFFFFF" stroke-width="6.94646" stroke-miterlimit="8" stroke-opacity="0.388235" fill="none" fill-rule="evenodd" transform="matrix(-1 0 0 1 786.5 1043.5)"/></g></svg>